# xmcd
#
# Track frame offsets:
#	182
#	11930
#	29067
#	43597
#	56705
#	68157
#	101055
#	118562
#	144572
#	171380
#	184962
#	197905
#	219657
#	232892
#	246385
#	258590
#	276010
#	291087
#	308230
#	319917
#
# Disc length: 4475 seconds
#
# Revision: 5
# Processed by: cddbd v1.5.2PL0 Copyright (c) Steve Scherf et al.
# Submitted via: EZCDAudioConverter 4.0.5.1
#
DISCID=41117914
DTITLE=Hank Williams, Jr. - The Bocephus Box: The Hank Williams Jr. Collection
DTITLE=1979-1999
DYEAR=2000
DGENRE=Country
TTITLE0=Keep Your Hands To Yourself
TTITLE1=Walk This Way
TTITLE2=Heaven Can't Be Found
TTITLE3=Thanks A Lot
TTITLE4=All My Rowdy Friends (Have Settled Down) (Solo)
TTITLE5=A Country Boy Can Survive
TTITLE6=You're Gonna Be A Sorry Man
TTITLE7=Tuesday's Gone
TTITLE8=Mannish Boy
TTITLE9=Finders Keepers
TTITLE10=There's A Tear In My Beer
TTITLE11=Big Mamou
TTITLE12=Man To Man
TTITLE13=Stoned At The Jukebox
TTITLE14=T'ain't Nobody's Bizness
TTITLE15=Lone Wolf
TTITLE16=If It Will It Will
TTITLE17=Hotel Whiskey
TTITLE18=Low Down Blues
TTITLE19=Naked Women And Beer
EXTD=
EXTT0=
EXTT1=
EXTT2=
EXTT3=
EXTT4=
EXTT5=
EXTT6=
EXTT7=
EXTT8=
EXTT9=
EXTT10=
EXTT11=
EXTT12=
EXTT13=
EXTT14=
EXTT15=
EXTT16=
EXTT17=
EXTT18=
EXTT19=
PLAYORDER=
